<?xml version="1.0" encoding="UTF-8"?>
<!DOCTYPE svg PUBLIC "-//W3C//DTD SVG 1.1//EN" "http://www.w3.org/Graphics/SVG/1.1/DTD/svg11.dtd">
<!-- Creator: CorelDRAW -->
<svg xmlns="http://www.w3.org/2000/svg" xml:space="preserve" width="161mm" height="14mm" version="1.1" style="shape-rendering:geometricPrecision; text-rendering:geometricPrecision; image-rendering:optimizeQuality; fill-rule:evenodd; clip-rule:evenodd"
viewBox="0 0 16100 1400"
 xmlns:xlink="http://www.w3.org/1999/xlink"
 xmlns:xodm="http://www.corel.com/coreldraw/odm/2003">
 <defs>
  <style type="text/css">
   <![CDATA[
    .fil0 {fill:#FEFEFE;fill-rule:nonzero}
    .fil1 {fill:#2B6CCB;fill-rule:nonzero}
   ]]>
  </style>
 </defs>
 <g id="Слой_x0020_1">
  <metadata id="CorelCorpID_0Corel-Layer"/>
  <path class="fil0" d="M1413.53 1042.89l-992.86 0 -165.94 291.25 -184.01 0 723.9 -1270 228.6 0 722.2 1270 -166.79 0 -165.1 -291.25zm-75.07 -132.08l-420.8 -741.68 -421.92 741.68 842.72 0zm796.71 -739.42l0 1162.75 -159.18 0 0 -1270 254.85 0 740.27 1111.67 740.83 -1111.67 262.18 0 0 1270 -159.17 0 0 -1146.95 -754.1 1146.95 -160.86 0 -764.82 -1162.75zm3532.56 288.99c0,-66.32 -7.06,-118.53 -21.45,-157.2 -14.39,-38.66 -38.1,-67.73 -71.12,-87.77 -33.02,-19.75 -76.48,-32.45 -130.38,-38.1 -54.19,-5.36 -120.8,-8.18 -200.1,-8.18l-424.74 0c-70.56,0 -129.83,1.97 -178.09,6.21 -48.26,4.23 -88.05,12.42 -119.38,25.12 -31.32,12.7 -55.59,31.04 -72.81,54.75 -16.93,23.7 -29.35,55.31 -36.97,94.54 -7.9,39.23 -12.13,87.21 -13.26,144.5 -1.13,57.01 -1.7,125.3 -1.7,204.89 0,79.59 0.57,147.89 1.98,204.89 1.41,57.3 5.93,105.27 13.83,144.5 7.62,39.23 19.75,70.84 36.69,94.55 16.65,23.7 40.92,41.76 72.24,54.46 31.33,12.7 71.12,21.17 119.38,25.4 48.26,4.24 107.53,6.21 178.09,6.21l425.59 0c61.8,0 114.86,-1.69 159.45,-5.08 44.59,-3.1 82.69,-9.31 114.02,-18.06 31.33,-9.03 56.73,-21.17 75.92,-36.69 19.47,-15.24 34.43,-34.71 45.15,-58.42 10.73,-23.42 18.06,-51.64 22.02,-84.38 3.66,-33.02 5.64,-71.4 5.64,-115.71l0 -79.59 -635 0 0 -132.08 794.17 0 0 211.95c0,52.78 -3.38,100.75 -9.87,143.65 -6.78,42.62 -18.35,80.72 -35.28,114.02 -16.65,33.3 -39.23,62.37 -67.17,86.64 -28.22,24.27 -63.78,44.03 -106.68,59.83 -43.18,15.81 -94.26,27.38 -153.81,34.71 -59.55,7.62 -128.98,11.29 -208.56,11.29l-425.59 0c-97.09,0 -178.93,-5.92 -245.25,-17.78 -66.33,-11.85 -121.08,-29.91 -164.26,-53.9 -42.89,-23.99 -76.2,-54.19 -99.62,-90.59 -23.43,-36.41 -40.36,-79.03 -51.08,-128.13 -10.73,-49.11 -16.94,-104.71 -18.63,-166.51 -1.69,-61.81 -2.54,-130.11 -2.54,-205.18 0,-75.07 0.85,-143.37 2.54,-205.17 1.69,-61.81 7.9,-117.41 18.63,-166.51 10.72,-49.11 27.65,-91.73 51.08,-128.13 23.42,-36.41 56.73,-66.61 99.62,-90.6 43.18,-23.99 97.93,-42.05 164.26,-53.9 66.32,-11.85 148.16,-17.78 245.25,-17.78l425.02 0c79.31,0 148.73,3.67 208.28,11.29 59.55,7.34 110.63,18.62 153.81,33.86 42.9,14.96 78.74,34.15 106.96,57.3 28.51,23.14 51.09,50.51 67.74,81.84 16.93,31.61 28.5,67.17 35.28,106.68 6.49,39.79 9.87,83.82 9.87,132.36l-159.17 0z"/>
  <path class="fil0" d="M8217.46 358.78l158.75 0 436.25 465.88 436.24 -465.88 158.75 0 -535.94 555.84 0 396.66 -119.38 0 0 -397.93 -534.67 -554.57zm2003.42 416.56c65.41,0 121.29,2.75 168.07,8.04 46.56,5.51 85.93,13.55 117.9,24.13 32.17,10.59 57.57,23.71 76.62,39.58 19.05,15.67 33.65,33.66 44.03,53.98 10.37,20.11 16.93,42.76 20.1,67.52 3.18,24.98 4.66,52.07 4.66,81.07 0,29 -2.54,56.09 -7.83,81.28 -5.08,25.4 -14.18,48.68 -27.52,69.64 -13.12,20.95 -31.11,39.79 -53.76,56.3 -22.86,16.51 -51.65,30.48 -86.78,41.91 -35.14,11.64 -77.47,20.32 -126.79,26.46 -49.32,5.93 -107.11,8.89 -173.15,8.89l-158.53 0c-59.48,0 -111.55,-2.33 -156.21,-6.77 -44.67,-4.66 -82.98,-11.43 -115.15,-20.75 -32.39,-9.31 -58.84,-21.16 -80.01,-35.35 -21.17,-14.39 -37.89,-31.11 -50.59,-50.16 -12.49,-19.26 -21.38,-41.28 -26.25,-65.83 -4.86,-24.55 -7.4,-51.65 -7.4,-81.49l119.38 0c0,37.89 5.29,67.31 16.08,88.9 10.8,21.38 28.37,37.46 53.13,48.05 24.77,10.79 57.36,17.57 97.58,20.32 40.22,2.75 89.96,4.02 149.44,4.02l158.53 0c69.22,0 126.79,-3.39 172.72,-9.95 45.72,-6.77 82.13,-17.36 109.44,-31.96 27.3,-14.61 46.35,-33.66 57.57,-57.36 11.22,-23.5 16.72,-52.28 16.72,-86.15 0,-33.66 -3.81,-62.02 -11.43,-84.46 -7.62,-22.64 -22.65,-40.42 -45.3,-53.76 -22.43,-13.55 -53.97,-22.86 -94.82,-28.57 -40.85,-5.72 -94.41,-8.47 -160.45,-8.47l-163.4 0c-72.6,0 -134.83,-2.75 -186.69,-8.04 -51.86,-5.51 -95.46,-13.13 -130.6,-23.29 -34.93,-10.16 -63.08,-22.86 -84.24,-37.89 -20.96,-15.02 -37.05,-32.38 -48.05,-51.85 -10.8,-19.48 -17.99,-41.07 -21.38,-64.77 -3.18,-23.92 -4.87,-49.75 -4.87,-77.47 0,-28.79 2.54,-55.67 7.83,-80.44 5.08,-24.76 14.61,-47.2 28.79,-67.31 13.97,-20.11 33.23,-37.89 57.57,-53.55 24.34,-15.66 55.67,-28.79 93.77,-39.37 38.31,-10.58 84.24,-18.63 138.01,-23.92 53.55,-5.29 116.84,-8.04 189.44,-8.04l118.96 0c59.47,0 111.54,2.12 156.21,6.56 44.66,4.23 82.97,11.01 115.14,20.32 32.39,9.31 59.06,20.96 80.22,34.71 21.38,13.97 38.32,30.48 50.8,49.75 12.7,19.05 21.38,40.85 26.46,65.19 4.87,24.55 7.41,51.43 7.41,81.28l-119.38 0c0,-37.25 -5.29,-66.46 -16.09,-87.42 -10.79,-21.17 -28.57,-36.83 -53.34,-47.41 -24.55,-10.59 -57.15,-17.15 -97.79,-19.9 -40.42,-2.75 -90.17,-4.02 -149.64,-4.02l-118.96 0c-79.16,0 -144.36,2.75 -195.58,8.47 -51.01,5.5 -91.44,14.81 -121.29,28.15 -29.63,13.12 -50.37,30.9 -61.8,53.34 -11.64,22.22 -17.36,50.16 -17.36,83.61 0,20.74 1.48,39.15 4.23,55.45 2.97,16.09 8.89,30.27 17.78,42.55 8.89,12.27 21.38,22.43 37.47,30.9 16.09,8.26 37.25,15.03 63.71,20.32 26.46,5.5 58.63,9.31 96.94,11.64 38.1,2.33 83.61,3.39 136.32,3.39l163.4 0zm1661.8 -416.56l0 99.06 -474.98 0 0 853.44 -119.38 0 0 -853.44 -474.98 0 0 -99.06 1069.34 0zm199.18 952.5l0 -952.5 952.5 0 0 99.06 -833.12 0 0 317.5 792.48 0 0 99.06 -792.48 0 0 337.82 833.12 0 0 99.06 -952.5 0zm1230.63 -872.07l0 872.07 -119.38 0 0 -952.5 191.14 0 555.2 833.75 555.62 -833.75 196.64 0 0 952.5 -119.38 0 0 -860.21 -565.57 860.21 -120.65 0 -573.62 -872.07zm2216.78 336.13c65.41,0 121.29,2.75 168.07,8.04 46.56,5.51 85.93,13.55 117.9,24.13 32.17,10.59 57.57,23.71 76.62,39.58 19.05,15.67 33.65,33.66 44.03,53.98 10.37,20.11 16.93,42.76 20.1,67.52 3.18,24.98 4.66,52.07 4.66,81.07 0,29 -2.54,56.09 -7.83,81.28 -5.08,25.4 -14.18,48.68 -27.52,69.64 -13.12,20.95 -31.11,39.79 -53.76,56.3 -22.86,16.51 -51.65,30.48 -86.78,41.91 -35.14,11.64 -77.47,20.32 -126.79,26.46 -49.32,5.93 -107.11,8.89 -173.15,8.89l-158.53 0c-59.48,0 -111.55,-2.33 -156.21,-6.77 -44.67,-4.66 -82.98,-11.43 -115.15,-20.75 -32.39,-9.31 -58.84,-21.16 -80.01,-35.35 -21.17,-14.39 -37.89,-31.11 -50.59,-50.16 -12.49,-19.26 -21.38,-41.28 -26.25,-65.83 -4.86,-24.55 -7.4,-51.65 -7.4,-81.49l119.38 0c0,37.89 5.29,67.31 16.08,88.9 10.8,21.38 28.37,37.46 53.13,48.05 24.77,10.79 57.36,17.57 97.58,20.32 40.22,2.75 89.96,4.02 149.44,4.02l158.53 0c69.22,0 126.79,-3.39 172.72,-9.95 45.72,-6.77 82.13,-17.36 109.44,-31.96 27.3,-14.61 46.35,-33.66 57.57,-57.36 11.22,-23.5 16.72,-52.28 16.72,-86.15 0,-33.66 -3.81,-62.02 -11.43,-84.46 -7.62,-22.64 -22.65,-40.42 -45.3,-53.76 -22.43,-13.55 -53.97,-22.86 -94.82,-28.57 -40.85,-5.72 -94.41,-8.47 -160.45,-8.47l-163.4 0c-72.6,0 -134.83,-2.75 -186.69,-8.04 -51.86,-5.51 -95.46,-13.13 -130.6,-23.29 -34.93,-10.16 -63.08,-22.86 -84.24,-37.89 -20.96,-15.02 -37.05,-32.38 -48.05,-51.85 -10.8,-19.48 -17.99,-41.07 -21.38,-64.77 -3.18,-23.92 -4.87,-49.75 -4.87,-77.47 0,-28.79 2.54,-55.67 7.83,-80.44 5.08,-24.76 14.61,-47.2 28.79,-67.31 13.97,-20.11 33.23,-37.89 57.57,-53.55 24.34,-15.66 55.67,-28.79 93.77,-39.37 38.31,-10.58 84.24,-18.63 138.01,-23.92 53.55,-5.29 116.84,-8.04 189.44,-8.04l118.96 0c59.47,0 111.54,2.12 156.21,6.56 44.66,4.23 82.97,11.01 115.14,20.32 32.39,9.31 59.06,20.96 80.22,34.71 21.38,13.97 38.32,30.48 50.8,49.75 12.7,19.05 21.38,40.85 26.46,65.19 4.87,24.55 7.41,51.43 7.41,81.28l-119.38 0c0,-37.25 -5.29,-66.46 -16.09,-87.42 -10.79,-21.17 -28.57,-36.83 -53.34,-47.41 -24.55,-10.59 -57.15,-17.15 -97.79,-19.9 -40.42,-2.75 -90.17,-4.02 -149.64,-4.02l-118.96 0c-79.16,0 -144.36,2.75 -195.58,8.47 -51.01,5.5 -91.44,14.81 -121.29,28.15 -29.63,13.12 -50.37,30.9 -61.8,53.34 -11.64,22.22 -17.36,50.16 -17.36,83.61 0,20.74 1.48,39.15 4.23,55.45 2.97,16.09 8.89,30.27 17.78,42.55 8.89,12.27 21.38,22.43 37.47,30.9 16.09,8.26 37.25,15.03 63.71,20.32 26.46,5.5 58.63,9.31 96.94,11.64 38.1,2.33 83.61,3.39 136.32,3.39l163.4 0z"/>
  <path class="fil1" d="M7559.68 616.16c87.21,0 161.71,3.67 224.08,10.73 62.09,7.34 114.59,18.06 157.2,32.17 42.9,14.11 76.77,31.61 102.16,52.78 25.4,20.88 44.88,44.87 58.71,71.96 13.83,26.82 22.57,57.01 26.81,90.03 4.23,33.31 6.21,69.43 6.21,108.09 0,38.67 -3.39,74.79 -10.45,108.38 -6.77,33.86 -18.9,64.91 -36.68,92.85 -17.5,27.94 -41.49,53.06 -71.69,75.07 -30.48,22.01 -68.86,40.64 -115.71,55.88 -46.85,15.52 -103.29,27.09 -169.05,35.28 -65.76,7.9 -142.8,11.85 -230.86,11.85l-211.38 0c-79.31,0 -148.73,-3.1 -208.28,-9.03 -59.55,-6.21 -110.63,-15.24 -153.53,-27.66 -43.18,-12.42 -78.46,-28.22 -106.68,-47.13 -28.22,-19.19 -50.52,-41.49 -67.45,-66.89 -16.65,-25.68 -28.5,-55.03 -35,-87.77 -6.49,-32.74 -9.87,-68.86 -9.87,-108.65l159.17 0c0,50.51 7.06,89.74 21.45,118.53 14.39,28.5 37.82,49.95 70.84,64.06 33.02,14.4 76.48,23.43 130.1,27.1 53.62,3.67 119.94,5.36 199.25,5.36l211.38 0c92.29,0 169.05,-4.52 230.3,-13.26 60.96,-9.04 109.5,-23.15 145.9,-42.62 36.41,-19.47 61.81,-44.87 76.77,-76.48 14.96,-31.33 22.29,-69.71 22.29,-114.87 0,-44.87 -5.08,-82.69 -15.24,-112.6 -10.16,-30.2 -30.19,-53.91 -60.39,-71.69 -29.92,-18.06 -71.97,-30.48 -126.44,-38.1 -54.47,-7.62 -125.87,-11.29 -213.92,-11.29l-217.88 0c-96.8,0 -179.77,-3.66 -248.92,-10.72 -69.14,-7.34 -127.28,-17.5 -174.13,-31.04 -46.56,-13.55 -84.1,-30.48 -112.32,-50.52 -27.94,-20.04 -49.39,-43.18 -64.06,-69.15 -14.4,-25.96 -23.99,-54.75 -28.51,-86.36 -4.23,-31.89 -6.49,-66.32 -6.49,-103.29 0,-38.38 3.39,-74.22 10.44,-107.24 6.78,-33.02 19.48,-62.94 38.38,-89.75 18.63,-26.81 44.31,-50.52 76.77,-71.4 32.45,-20.89 74.22,-38.38 125.02,-52.5 51.08,-14.11 112.33,-24.83 184.01,-31.89 71.4,-7.05 155.79,-10.72 252.59,-10.72l158.61 0c79.3,0 148.73,2.82 208.28,8.75 59.55,5.64 110.63,14.67 153.53,27.09 43.18,12.42 78.74,27.94 106.96,46.29 28.5,18.62 51.08,40.64 67.73,66.32 16.93,25.4 28.51,54.47 35.28,86.92 6.49,32.74 9.88,68.58 9.88,108.38l-159.18 0c0,-49.68 -7.05,-88.62 -21.44,-116.56 -14.4,-28.22 -38.1,-49.11 -71.12,-63.22 -32.74,-14.11 -76.2,-22.86 -130.39,-26.53 -53.91,-3.67 -120.23,-5.36 -199.53,-5.36l-158.61 0c-105.55,0 -192.48,3.67 -260.77,11.29 -68.02,7.34 -121.92,19.75 -161.72,37.53 -39.51,17.5 -67.17,41.21 -82.41,71.12 -15.52,29.64 -23.14,66.89 -23.14,111.48 0,27.66 1.98,52.21 5.65,73.94 3.95,21.45 11.85,40.36 23.7,56.73 11.86,16.37 28.51,29.91 49.96,41.2 21.45,11.01 49.67,20.04 84.95,27.1 35.27,7.33 78.17,12.41 129.25,15.52 50.8,3.1 111.48,4.51 181.75,4.51l217.88 0z"/>
 </g>
</svg>
