<svg width="78" height="79" viewBox="0 0 78 79" fill="none" xmlns="http://www.w3.org/2000/svg">
<rect width="0.996195" height="87.8649" rx="0.498098" transform="matrix(0.749741 0.661731 -0.668158 0.74402 68.7715 12.0248)" fill="white"/>
<rect width="0.996195" height="87.9604" rx="0.498098" transform="matrix(-0.749741 0.661731 0.668158 0.74402 10.7469 11.8965)" fill="white"/>
<path d="M73.186 35.4314C74.186 36.4228 74.5556 39.8926 74.5556 39.8926C75 39.655 75.0556 38.6636 74.5556 35.1938C74.5 34.6981 74.2891 31.9616 74.2891 31.9616L73.8534 32.8448C73.671 33.2145 73.2945 33.4487 72.8822 33.4487C72.67 33.4487 72.4634 33.3795 72.2904 33.2567C70.1656 31.7484 68.6433 31.4351 65.5555 31.9616C65.5555 31.9616 62.5556 32.829 60.5555 35.4314C56.3762 40.8695 56.5636 46.037 57.6958 49.7325C58.9121 53.7024 62.2383 56.7756 66.2883 57.6907C70.672 58.6812 74.6132 57.7673 75 55.517C74.9445 55.2794 75 48.5774 75 48.5774V45.6032C75 44.0283 78 44.6119 78 44.6119V43.6205H69V44.6119C69 44.6119 72 43.9272 72 45.6032V48.5774V55.517C70.5 57.4997 67.5555 56.6154 67.5555 56.6154C67.5555 56.6154 59.5556 55.7546 60.0556 44.3538C61.0556 33.4487 66.817 32.953 67.5555 32.953C69.0555 32.9529 71.186 32.953 73.186 35.4314Z" fill="white"/>
<path fill-rule="evenodd" clip-rule="evenodd" d="M0.769265 57.0881C0.592981 57.2262 0.446994 57.2868 0.331306 57.3069C0.203611 57.329 0 57.456 0 57.5856C0 57.6661 0.0652827 57.7314 0.145813 57.7314H5.75216C5.88904 57.7314 6 57.6204 6 57.4836C6 57.3467 5.88918 57.2322 5.75437 57.2085C5.39657 57.1455 4.69829 56.9366 4 56.2443C3.5 55.7486 4 54.2616 4 54.2616C4 54.2616 4.66667 51.7831 5 50.7918C5.5 49.3047 6.5 49.3047 6.5 49.3047H12.5C12.5 49.3047 13.5 49.3047 14 50.7918C14.2624 51.5722 14.9366 54.0301 14.9958 54.2463C14.9989 54.2577 15.0019 54.2671 15.0055 54.2783C15.0233 54.3338 15.0818 54.5224 15.1335 54.766C15.3378 55.7282 14.9237 57.0017 13.9576 57.1867C13.8812 57.2014 13.8096 57.2116 13.7468 57.2188C13.6108 57.2344 13.5 57.3467 13.5 57.4835C13.5 57.6204 13.611 57.7314 13.7478 57.7314H20.2123C20.3712 57.7314 20.5 57.6026 20.5 57.4437C20.5 57.3195 20.4208 57.2094 20.3048 57.1655C20.2237 57.1348 20.123 57.0949 20.0138 57.0477C19.2584 56.7214 18.6766 55.8363 18.3406 55.0851C16.2294 50.3655 10.5 32.947 10.5 32.947C10.5 32.947 10.1931 32.4257 10 32.947C9.60491 34.0138 8.84515 36.2643 7.93352 38.9646C5.98057 44.7496 3.33063 52.5991 2.0759 55.2974C1.76636 55.963 1.34712 56.6353 0.769265 57.0881ZM9.50002 39.391C9 39.8867 6.00002 47.322 6.50002 47.8177C7.00002 48.3134 12.5 48.3134 13 47.8177C13.5 47.322 9.50002 38.6925 9.50002 39.391Z" fill="white"/>
<path d="M29 23.793C28.6265 24.1633 27.6949 24.257 27.2475 24.2807C27.1108 24.2879 27 24.3996 27 24.5365C27 24.6734 27.111 24.7844 27.2478 24.7844H33.7522C33.889 24.7844 34 24.6734 34 24.5365C34 24.3996 33.8892 24.2881 33.7524 24.2836C33.2013 24.2652 31.8913 24.1809 31.5 23.793C31 23.2973 31 22.8016 31 22.8016V4.95687C31 4.70844 31.3346 4.62885 31.4464 4.85067L31.5 4.95687C31.5 4.95687 38 24.2887 39 24.7844C39.8892 24.3436 45.1273 8.61724 46.277 5.13803C46.4126 4.7276 46.955 4.46128 46.9969 4.8915C46.9989 4.91227 47 4.93405 47 4.95687C47 5.45256 46.5 22.8016 46.5 22.8016C46.5 22.8016 46.5 23.2973 46 23.793C45.6265 24.1633 44.6949 24.257 44.2475 24.2807C44.1108 24.2879 44 24.3996 44 24.5365C44 24.6734 44.111 24.7844 44.2478 24.7844H52.2522C52.389 24.7844 52.5 24.6734 52.5 24.5365C52.5 24.3996 52.3892 24.2881 52.2524 24.2836C51.7013 24.2652 50.3913 24.1809 50 23.793C49.5 23.2973 49.5 22.8016 49.5 22.8016V1.98275C49.5 1.98275 49.5 1.48706 50 0.991374C50.3921 0.602658 51.6716 0.507837 52.2056 0.485014C52.3372 0.479389 52.443 0.371763 52.443 0.240046C52.443 0.107472 52.3355 0 52.203 0H47.6952C47.2773 0 46.9034 0.2599 46.7578 0.651651L40.0871 18.6018C40.0347 18.7427 39.9003 18.8361 39.75 18.8361C39.5997 18.8361 39.4653 18.7427 39.4129 18.6018L32.7422 0.65165C32.5966 0.259899 32.2227 0 31.8048 0H27.2478C27.111 0 27 0.110963 27 0.247844C27 0.384724 27.1108 0.496471 27.2475 0.503711C27.6949 0.527405 28.6265 0.621075 29 0.991374C29.5 1.48706 29.5 1.48706 29.5 1.98275V22.8016C29.5 22.8016 29.5 23.2973 29 23.793Z" fill="white"/>
</svg>
